<mxfile host="app.diagrams.net" modified="2024-04-24T12:51:59.693Z" agent="Mozilla/5.0 (Windows NT 10.0; Win64; x64) AppleWebKit/537.36 (KHTML, like Gecko) Chrome/121.0.0.0 Safari/537.36 OPR/107.0.0.0" version="24.3.0" etag="IW8IfXXnLoJDIp7B2xNI" type="github">
  <diagram name="Page-1" id="yInwOQGfK4RWaVCSlGoD">
    <mxGraphModel>
      <root>
        <mxCell id="0" />
        <mxCell id="1" parent="0" />
      </root>
    </mxGraphModel>
  </diagram>
</mxfile>
